<?xml version="1.0" standalone="no"?>
<!DOCTYPE svg PUBLIC "-//W3C//DTD SVG 20010904//EN"
 "http://www.w3.org/TR/2001/REC-SVG-20010904/DTD/svg10.dtd">
<svg version="1.0" xmlns="http://www.w3.org/2000/svg"
 width="4134.000000pt" height="4134.000000pt" viewBox="0 0 4134.000000 4134.000000"
 preserveAspectRatio="xMidYMid meet">
<metadata>
Created by potrace 1.11, written by Peter Selinger 2001-2013
</metadata>
<g transform="translate(0.000000,4134.000000) scale(0.100000,-0.100000)"
fill="#000000" stroke="none">
<path d="M20778 33745 c-1 -2 -70 -6 -153 -10 -241 -11 -398 -21 -470 -30 -16
-2 -70 -6 -120 -10 -49 -4 -103 -8 -120 -10 -16 -2 -52 -7 -80 -10 -27 -3 -68
-8 -90 -10 -22 -3 -62 -7 -90 -10 -27 -3 -61 -7 -75 -10 -14 -2 -50 -7 -80
-10 -30 -3 -84 -11 -120 -16 -36 -5 -76 -12 -90 -14 -59 -8 -116 -18 -135 -21
-10 -2 -37 -6 -60 -9 -22 -3 -47 -8 -55 -10 -8 -3 -31 -7 -50 -9 -59 -8 -463
-88 -560 -111 -8 -2 -58 -13 -110 -25 -660 -148 -1448 -405 -2114 -690 -416
-177 -885 -409 -1211 -597 -22 -12 -47 -26 -55 -30 -8 -4 -66 -37 -129 -75
-63 -37 -116 -68 -118 -68 -18 0 -567 -358 -793 -518 -123 -87 -498 -367 -510
-381 -3 -3 -61 -51 -130 -106 -69 -55 -127 -102 -130 -105 -3 -3 -34 -30 -70
-60 -36 -31 -76 -65 -90 -77 -14 -12 -34 -30 -46 -40 -219 -188 -703 -654
-849 -818 -14 -16 -50 -55 -78 -86 -87 -93 -139 -151 -207 -229 -36 -41 -68
-77 -71 -80 -17 -15 -271 -326 -362 -444 -243 -313 -508 -692 -686 -981 -41
-66 -84 -136 -96 -155 -31 -49 -110 -182 -118 -200 -5 -8 -13 -24 -20 -35
-146 -243 -391 -731 -564 -1125 -109 -248 -313 -778 -313 -812 0 -8 -3 -18 -7
-22 -5 -4 -8 -11 -9 -14 0 -4 -3 -14 -7 -22 -25 -64 -133 -418 -181 -590 -75
-275 -171 -679 -202 -860 -2 -14 -7 -36 -9 -50 -3 -14 -8 -38 -10 -55 -3 -16
-8 -41 -10 -55 -10 -46 -13 -67 -19 -106 -4 -22 -11 -68 -17 -104 -12 -75 -12
-69 -32 -220 -9 -63 -19 -140 -22 -170 -4 -30 -8 -66 -10 -80 -3 -14 -7 -47
-9 -75 -3 -27 -8 -72 -11 -100 -7 -65 -12 -120 -20 -230 -3 -49 -8 -110 -10
-135 -27 -312 -27 -1218 0 -1505 3 -27 7 -84 10 -125 7 -100 13 -169 31 -335
7 -72 23 -206 28 -235 3 -14 7 -47 11 -75 30 -247 83 -541 165 -920 94 -437
266 -1014 448 -1500 58 -156 174 -441 207 -510 8 -16 32 -70 54 -120 157 -361
405 -834 650 -1243 14 -24 31 -51 36 -60 6 -10 20 -32 33 -49 12 -17 22 -34
22 -37 0 -4 9 -19 19 -34 11 -15 62 -93 114 -173 134 -206 482 -697 517 -729
3 -3 37 -45 75 -95 129 -167 265 -327 563 -664 160 -180 539 -558 767 -766 61
-54 112 -102 115 -105 3 -3 68 -60 145 -125 77 -66 142 -122 145 -125 15 -18
417 -333 540 -424 80 -59 152 -113 161 -119 8 -7 23 -16 31 -22 9 -5 58 -40
110 -76 201 -142 533 -359 548 -359 6 0 10 -4 10 -9 0 -5 6 -11 13 -13 6 -2
100 -56 208 -120 391 -234 834 -463 1309 -676 82 -37 374 -158 460 -191 47
-18 99 -39 115 -46 108 -46 562 -203 799 -276 270 -84 807 -227 946 -253 14
-2 54 -11 90 -20 36 -8 79 -18 95 -21 17 -3 59 -11 95 -19 36 -8 68 -11 71 -8
12 13 77 227 83 272 3 25 10 65 16 89 6 24 8 46 6 49 -3 2 -1 12 4 22 8 15 3
19 -33 29 -23 6 -58 13 -77 17 -19 3 -73 14 -120 24 -47 10 -96 21 -110 23
-14 3 -45 10 -70 17 -25 7 -56 14 -70 17 -53 9 -334 82 -495 127 -538 153
-1147 374 -1640 594 -345 154 -795 381 -1038 524 -26 15 -50 28 -52 28 -2 0
-57 32 -122 72 -65 39 -127 76 -138 82 -111 59 -590 379 -844 563 -127 92
-470 358 -546 424 -11 10 -58 50 -105 89 -47 39 -96 81 -110 94 -14 12 -65 58
-115 101 -196 172 -558 524 -735 715 -23 25 -65 70 -93 100 -29 31 -101 112
-161 180 -60 69 -121 139 -135 155 -14 17 -44 53 -66 80 -22 28 -43 52 -46 55
-4 3 -34 40 -68 83 -34 43 -68 85 -76 95 -96 119 -237 307 -320 427 -27 39
-52 72 -55 75 -3 3 -55 79 -116 170 -797 1186 -1344 2471 -1632 3835 -22 105
-43 204 -45 220 -3 17 -12 73 -22 125 -9 52 -18 109 -21 125 -2 17 -9 55 -14
85 -13 76 -26 172 -35 250 -6 51 -14 113 -20 150 -2 14 -7 59 -11 100 -3 41
-7 86 -9 100 -11 107 -20 218 -30 370 -25 373 -25 958 0 1360 11 171 18 259
30 380 21 193 26 237 29 256 2 11 7 46 10 79 4 33 9 71 11 85 2 14 7 43 9 65
3 22 7 49 10 60 2 11 6 41 10 66 8 53 14 93 21 129 3 14 8 43 11 65 3 22 9 58
14 80 5 22 11 56 15 75 5 36 11 65 21 110 3 14 7 36 10 50 3 14 11 53 19 88 8
34 17 74 20 90 2 15 27 117 55 227 28 110 52 208 54 217 67 271 330 1046 426
1253 5 11 28 65 50 120 23 55 57 133 76 173 19 41 34 75 34 77 0 17 238 497
343 690 282 523 675 1122 1034 1575 65 82 191 238 203 250 8 9 33 38 55 65 35
43 162 191 190 221 5 6 46 50 90 99 200 219 455 476 716 721 320 299 882 749
1264 1010 269 185 667 437 855 541 30 17 96 53 145 81 194 107 269 147 510
266 782 387 1563 674 2424 892 118 30 224 56 235 58 12 3 55 12 96 21 41 9 86
19 100 21 14 3 77 16 140 29 114 23 257 50 315 60 17 2 100 16 185 29 85 14
173 27 195 30 22 3 92 12 155 20 135 17 187 24 255 31 28 3 68 7 90 10 22 2
76 7 120 11 44 4 94 8 110 10 17 1 82 6 145 10 63 4 133 8 155 9 371 24 1208
24 1460 0 22 -2 85 -6 140 -10 55 -3 120 -8 145 -10 25 -3 77 -7 115 -10 39
-3 88 -7 110 -10 22 -2 65 -7 95 -10 128 -14 139 -15 260 -30 19 -2 51 -6 70
-9 19 -3 55 -8 80 -11 25 -3 70 -10 100 -15 30 -5 72 -11 93 -14 82 -13 113
-17 137 -22 14 -3 52 -9 85 -15 92 -15 315 -58 360 -69 22 -5 85 -19 140 -31
55 -11 156 -34 225 -51 137 -32 152 -36 178 -42 381 -90 1214 -364 1572 -519
14 -5 27 -11 30 -11 8 -2 160 -66 210 -89 25 -11 79 -34 120 -52 213 -93 650
-309 875 -433 240 -133 237 -131 430 -247 547 -329 1017 -664 1510 -1076 134
-112 154 -130 235 -201 291 -259 723 -686 916 -908 21 -25 46 -52 54 -60 100
-98 474 -561 703 -871 420 -567 869 -1346 1167 -2024 33 -77 67 -153 74 -170
110 -248 280 -719 397 -1104 44 -143 181 -668 194 -741 2 -14 18 -92 36 -175
17 -82 32 -157 34 -165 1 -8 6 -37 9 -64 4 -27 9 -52 11 -55 1 -3 6 -31 10
-61 4 -30 8 -57 10 -60 2 -3 8 -42 14 -86 7 -44 13 -89 15 -100 6 -35 19 -128
31 -229 3 -27 8 -63 10 -80 2 -16 7 -57 10 -90 3 -33 8 -78 11 -100 2 -22 6
-65 9 -95 2 -30 7 -91 11 -135 17 -210 28 -509 28 -815 0 -262 -10 -612 -18
-685 -2 -16 -7 -84 -11 -150 -4 -66 -8 -122 -10 -125 -1 -3 -6 -45 -10 -94 -4
-50 -8 -97 -10 -105 -1 -9 -6 -47 -9 -86 -4 -38 -9 -81 -11 -95 -2 -14 -9 -63
-15 -110 -16 -121 -19 -145 -35 -240 -8 -47 -16 -101 -19 -120 -8 -51 -14 -85
-31 -170 -8 -41 -16 -86 -19 -100 -47 -249 -120 -546 -221 -910 -18 -65 -75
-252 -82 -270 -3 -8 -7 -20 -8 -25 -4 -18 -85 -254 -117 -340 -16 -44 -36 -98
-43 -120 -13 -39 -124 -321 -149 -380 -8 -16 -26 -59 -41 -95 -97 -228 -293
-638 -403 -840 -94 -173 -157 -288 -177 -320 -12 -19 -33 -55 -47 -80 -134
-240 -441 -702 -676 -1018 -86 -116 -384 -491 -439 -553 -17 -19 -65 -74 -108
-124 -68 -78 -162 -183 -276 -305 -176 -190 -548 -553 -734 -716 -177 -156
-246 -214 -380 -326 -388 -322 -959 -722 -1439 -1007 -303 -180 -790 -439
-1041 -553 -266 -121 -348 -157 -506 -223 -443 -184 -976 -367 -1439 -494
-135 -36 -499 -128 -545 -137 -11 -2 -31 -6 -45 -9 -14 -3 -34 -7 -45 -9 -11
-3 -64 -14 -119 -25 -112 -24 -109 -23 -234 -47 -60 -11 -96 -22 -99 -31 -3
-8 4 -35 17 -59 12 -25 19 -48 16 -51 -3 -3 -2 -11 3 -17 5 -6 14 -29 21 -51
7 -22 30 -72 51 -112 20 -39 35 -74 31 -77 -3 -3 -1 -6 4 -6 5 0 10 -10 11
-21 4 -43 17 -44 157 -15 74 15 146 29 161 32 15 3 57 12 94 20 36 9 77 18 91
21 83 15 469 113 665 169 407 116 744 229 1145 384 175 68 394 159 443 185 16
8 32 15 37 15 17 0 386 175 630 298 203 103 275 142 455 242 66 37 136 76 155
86 19 11 37 21 40 24 3 3 28 19 55 35 183 104 685 428 822 529 23 17 70 51
105 76 205 146 522 392 702 545 39 33 87 73 106 89 19 16 64 55 100 87 36 31
76 67 90 79 249 214 681 646 965 965 39 43 79 89 90 101 56 62 249 295 356
429 89 111 262 342 372 495 25 36 50 70 54 75 32 40 320 482 403 620 318 525
619 1127 838 1675 210 525 364 1013 508 1605 17 71 104 491 108 523 3 24 7 46
10 50 2 4 7 27 10 52 3 25 8 56 11 70 2 13 7 42 10 65 3 22 10 66 16 98 11 65
11 62 33 237 20 155 23 180 31 255 3 33 8 76 10 95 8 67 19 199 30 359 15 212
19 372 19 736 1 369 -8 698 -19 775 -2 14 -7 68 -10 120 -4 52 -8 111 -10 130
-2 19 -6 64 -10 100 -3 36 -8 81 -10 100 -3 19 -7 59 -10 88 -2 29 -9 81 -14
115 -5 34 -12 85 -16 112 -3 28 -7 61 -10 75 -2 14 -7 48 -10 75 -3 28 -8 57
-10 65 -2 8 -6 33 -10 55 -11 78 -37 222 -66 370 -355 1796 -1140 3469 -2316
4932 -108 135 -225 276 -243 293 -3 3 -35 39 -72 82 -356 412 -845 892 -1309
1284 -189 159 -574 457 -769 594 -58 41 -107 77 -110 80 -3 3 -13 10 -22 15
-9 6 -88 58 -175 116 -537 361 -1153 705 -1728 966 -66 30 -134 61 -151 68
-335 152 -900 367 -1269 482 -194 61 -244 76 -305 93 -36 10 -99 28 -140 40
-41 12 -82 23 -90 25 -8 2 -121 31 -250 63 -129 33 -252 63 -274 66 -21 4 -41
8 -45 10 -6 4 -331 71 -416 86 -200 35 -295 51 -330 56 -22 3 -47 7 -55 9 -8
3 -64 11 -125 20 -60 8 -119 17 -130 19 -11 2 -51 7 -88 11 -37 3 -78 8 -90
11 -12 2 -53 7 -92 10 -38 3 -71 7 -75 9 -3 2 -45 6 -95 10 -49 3 -101 8 -115
10 -23 4 -100 11 -221 20 -24 2 -105 6 -179 10 -74 4 -155 9 -180 12 -54 5
-1057 13 -1062 8z"/>
<path d="M21359 32325 c-5 -38 -3 -88 4 -92 4 -2 5 -9 1 -14 -3 -6 -12 -38
-20 -72 -23 -102 -89 -256 -131 -308 -6 -8 -14 -25 -18 -39 -4 -14 -18 -39
-31 -56 -13 -17 -20 -34 -17 -38 3 -3 -2 -8 -11 -12 -9 -3 -16 -11 -16 -16 0
-11 -121 -191 -132 -196 -5 -2 -8 -9 -8 -15 0 -7 -10 -23 -23 -37 -13 -14 -36
-48 -52 -77 -16 -29 -40 -57 -52 -64 -12 -7 -21 -15 -21 -18 4 -16 -18 -60
-48 -95 -19 -22 -34 -46 -34 -53 0 -7 -4 -13 -10 -13 -5 0 -10 -6 -10 -14 0
-8 -6 -21 -13 -28 -28 -30 -80 -118 -69 -118 4 0 2 -4 -4 -8 -17 -10 -54 -84
-48 -94 3 -4 0 -8 -6 -8 -6 0 -16 -13 -21 -30 -6 -16 -15 -30 -21 -30 -5 0 -7
-4 -3 -9 3 -5 -1 -15 -8 -23 -8 -7 -12 -18 -10 -25 2 -6 -1 -14 -6 -18 -6 -3
-11 -14 -11 -24 0 -10 -7 -32 -15 -47 -8 -16 -15 -37 -15 -46 0 -9 -4 -19 -9
-22 -4 -3 -8 -23 -7 -43 1 -21 0 -42 -3 -48 -13 -23 -17 -210 -6 -295 3 -25 6
-54 6 -65 0 -26 29 -147 39 -160 4 -5 11 -23 15 -40 12 -44 12 -45 15 -50 1
-3 3 -8 5 -12 10 -37 63 -145 115 -238 28 -49 54 -98 57 -107 3 -10 9 -18 14
-18 5 0 21 -18 35 -40 26 -39 44 -51 44 -30 0 6 13 23 28 38 15 15 45 54 67
86 22 33 50 71 62 84 13 14 23 31 23 38 0 8 5 14 11 14 5 0 8 4 5 9 -4 5 -3
11 1 13 11 4 84 114 108 161 11 20 23 37 28 37 4 0 6 4 2 9 -3 5 2 16 10 25 9
9 18 26 20 38 3 12 9 24 13 27 5 3 15 23 23 44 7 20 17 37 21 37 4 0 7 3 6 8
-1 4 13 38 32 77 18 38 33 76 33 82 0 7 5 13 10 13 6 0 7 3 4 7 -4 3 -3 11 2
17 5 6 14 29 21 51 7 22 17 49 23 60 6 11 12 25 13 30 3 17 35 129 41 145 4 8
7 23 8 33 2 9 4 19 5 22 1 3 3 9 4 14 0 5 4 12 8 16 4 4 4 13 1 21 -3 8 -1 14
5 14 6 0 9 8 7 18 -1 9 0 21 3 26 3 6 7 26 8 45 2 20 10 88 18 151 19 148 20
388 1 455 -26 93 -26 187 -1 186 13 0 35 -35 36 -56 0 -12 5 -26 12 -33 7 -7
9 -12 5 -12 -3 0 3 -21 13 -46 11 -25 20 -58 20 -73 0 -15 5 -32 10 -37 12
-12 19 -41 25 -94 2 -19 4 -37 6 -40 1 -3 3 -18 4 -35 2 -16 4 -32 5 -35 3 -7
10 -166 10 -215 -1 -49 -9 -153 -22 -272 -1 -7 -5 -13 -9 -13 -4 0 -5 -9 -2
-21 3 -12 0 -24 -6 -29 -7 -4 -14 -29 -16 -56 -4 -45 -24 -113 -56 -189 -7
-16 -11 -36 -10 -42 1 -7 -2 -13 -7 -13 -5 0 -9 -6 -9 -12 0 -13 -15 -50 -54
-134 -10 -23 -19 -45 -19 -50 0 -5 -9 -20 -20 -34 -11 -14 -20 -32 -20 -40 0
-8 -15 -38 -33 -65 -19 -28 -45 -74 -58 -102 -13 -29 -27 -53 -31 -53 -5 0 -8
-6 -8 -14 0 -8 -10 -22 -22 -30 -12 -9 -19 -16 -15 -16 12 0 -77 -147 -98
-162 -5 -4 -10 -11 -10 -15 0 -4 -15 -29 -33 -55 -18 -27 -30 -48 -27 -48 3 0
-6 -18 -20 -40 -14 -22 -25 -44 -25 -49 0 -5 -3 -11 -8 -13 -4 -1 -16 -23 -26
-48 -23 -58 -72 -183 -74 -192 -18 -71 -18 -263 0 -274 9 -6 9 -4 13 41 2 17
4 32 5 35 2 3 4 10 4 16 2 13 48 107 57 114 3 3 16 21 30 41 37 55 91 121 221
270 25 30 63 74 83 99 20 25 45 52 54 61 9 9 25 29 36 44 11 16 25 33 30 39
34 37 192 266 250 361 45 74 180 343 181 360 1 26 17 65 27 65 6 0 8 3 5 6 -4
3 0 21 8 41 17 39 35 118 35 148 0 10 5 25 12 33 12 15 14 33 21 162 2 41 5
76 6 78 7 8 -4 151 -16 217 -4 22 -8 49 -10 60 -1 11 -3 22 -4 25 -1 3 -2 17
-2 33 -1 15 -3 27 -7 27 -3 0 -7 19 -9 43 -1 23 -6 51 -11 62 -5 11 -19 54
-32 95 -12 41 -27 81 -32 88 -5 6 -6 12 -3 12 4 0 1 12 -7 28 -8 15 -20 47
-27 72 -7 25 -19 53 -28 63 -8 9 -12 17 -8 17 3 0 0 13 -9 30 -8 16 -15 33
-14 36 0 4 -3 10 -9 13 -5 3 -30 49 -57 101 -26 52 -51 97 -56 98 -5 2 -7 8
-3 13 3 5 0 9 -6 9 -6 0 -9 4 -6 9 3 5 -9 24 -27 42 -17 19 -31 35 -29 37 1 1
2 3 1 5 0 1 -2 10 -4 20 -2 10 -19 38 -39 62 -20 24 -36 48 -36 54 0 6 -4 11
-10 11 -5 0 -10 4 -10 10 0 5 -8 19 -17 31 -53 63 -73 83 -74 74z"/>
<path d="M20577 31483 c-1 -1 -45 -4 -98 -8 -53 -3 -107 -8 -120 -10 -13 -2
-62 -6 -109 -10 -47 -4 -96 -8 -110 -10 -14 -2 -47 -6 -75 -10 -129 -16 -262
-34 -295 -40 -14 -2 -61 -9 -105 -15 -103 -15 -462 -82 -585 -110 -52 -12
-106 -23 -120 -26 -14 -3 -79 -18 -145 -35 -66 -16 -131 -32 -145 -35 -14 -3
-56 -14 -94 -25 -38 -12 -77 -22 -86 -24 -63 -12 -438 -130 -665 -210 -259
-90 -546 -204 -760 -300 -33 -15 -80 -36 -105 -47 -635 -286 -1297 -680 -1899
-1130 -75 -56 -138 -104 -141 -108 -3 -3 -36 -30 -75 -60 -38 -30 -72 -57 -75
-60 -3 -3 -45 -39 -95 -80 -210 -174 -424 -370 -639 -586 -188 -188 -271 -276
-440 -469 -43 -49 -91 -103 -105 -120 -37 -42 -231 -282 -265 -329 -23 -31
-25 -36 -9 -27 11 5 23 7 27 4 3 -3 6 -1 6 6 0 7 6 11 14 8 8 -3 17 -3 21 1
11 11 59 9 67 -2 5 -7 8 -6 8 2 0 7 5 10 10 7 12 -7 110 15 110 25 0 3 12 5
28 4 15 -1 32 2 37 6 6 4 24 11 42 15 32 6 47 20 148 140 235 277 559 608 855
874 170 152 254 225 345 296 21 17 43 35 49 41 25 23 290 226 416 318 127 93
451 311 550 370 25 15 52 31 60 36 559 342 1182 643 1795 865 127 46 475 163
505 171 8 2 53 14 100 28 166 48 227 65 360 100 142 37 520 122 586 131 22 4
46 8 54 10 8 3 33 7 55 10 22 3 51 8 65 11 44 10 188 34 230 39 14 1 43 5 65
9 22 4 56 9 75 11 101 13 135 17 149 20 9 1 50 6 91 10 41 4 84 9 95 11 11 2
56 6 100 10 79 5 81 6 117 47 21 23 38 45 38 49 0 7 51 80 81 116 5 6 6 12 2
12 -4 0 -1 6 7 13 8 7 23 24 32 38 17 26 17 27 -8 25 -14 0 -26 -2 -27 -3z"/>
<path d="M22152 31456 c6 -14 15 -26 20 -26 5 0 7 -4 4 -8 -3 -5 3 -26 13 -48
11 -21 31 -72 47 -111 27 -72 28 -73 63 -74 20 0 45 -2 56 -4 11 -2 51 -7 90
-10 38 -3 77 -8 85 -10 8 -2 45 -7 82 -10 37 -3 75 -8 86 -10 10 -2 43 -6 73
-10 30 -3 91 -13 135 -20 45 -8 103 -17 130 -21 205 -27 903 -180 1069 -234
17 -6 100 -31 185 -56 768 -225 1568 -575 2249 -983 80 -47 156 -93 170 -101
160 -96 486 -318 697 -476 506 -378 1035 -865 1434 -1322 114 -131 122 -134
169 -83 14 14 25 25 25 23 1 -2 17 3 36 11 19 8 44 18 55 22 11 4 25 9 32 10
6 2 19 7 28 13 15 8 10 18 -41 78 -32 38 -63 74 -69 80 -5 6 -44 49 -85 95
-234 262 -532 556 -811 801 -35 31 -75 66 -89 78 -62 55 -345 284 -440 356
-1148 872 -2447 1484 -3860 1818 -231 55 -459 102 -610 126 -36 6 -77 13 -92
15 -16 3 -43 7 -60 10 -18 3 -40 8 -48 10 -8 2 -44 7 -80 10 -36 4 -67 8 -70
10 -3 2 -30 6 -60 9 -30 3 -64 8 -75 10 -11 2 -49 7 -85 11 -36 3 -76 8 -90
10 -14 2 -54 6 -90 9 -91 9 -144 14 -223 21 l-67 6 12 -25z"/>
<path d="M18480 30645 c-15 -37 -20 -63 -25 -140 -2 -33 -5 -61 -6 -62 -1 -2
-2 -11 -4 -20 -1 -10 -5 -25 -8 -33 -11 -26 -18 -72 -22 -150 -3 -41 -7 -102
-10 -135 -8 -78 -7 -369 0 -465 8 -99 13 -155 16 -155 1 0 3 -13 5 -30 2 -16
6 -48 9 -70 3 -22 5 -48 6 -57 0 -10 4 -18 9 -18 4 0 6 -9 3 -20 -3 -11 0 -26
6 -33 6 -8 8 -16 5 -20 -3 -3 2 -32 11 -64 16 -54 22 -79 29 -110 1 -7 5 -15
8 -19 4 -3 4 -12 1 -20 -3 -8 0 -14 7 -14 6 0 9 -4 6 -8 -3 -5 7 -33 21 -63
14 -30 27 -58 27 -64 6 -41 31 -101 49 -116 12 -10 18 -18 13 -19 -5 0 -3 -7
4 -15 7 -8 9 -15 5 -15 -6 0 32 -70 45 -80 3 -3 17 -23 30 -45 50 -84 131
-184 238 -296 61 -65 112 -115 114 -113 3 2 20 -11 39 -29 19 -17 55 -48 79
-67 25 -19 55 -45 68 -57 12 -13 25 -23 27 -22 3 0 20 -12 39 -26 18 -14 36
-25 40 -25 4 0 16 -8 27 -18 10 -11 32 -25 47 -33 15 -8 29 -17 32 -20 5 -7
65 -42 113 -66 15 -8 27 -19 27 -24 0 -5 4 -8 8 -7 4 2 37 -14 72 -35 36 -20
70 -38 75 -39 6 -1 16 -8 23 -15 8 -7 17 -11 22 -8 4 3 13 -2 20 -10 7 -8 17
-12 22 -9 5 3 17 -1 26 -9 18 -16 166 -88 187 -91 7 -1 19 -6 26 -12 18 -13
58 -31 219 -99 74 -31 155 -66 180 -78 25 -11 50 -22 57 -23 6 -1 21 -11 33
-22 12 -11 33 -22 48 -25 15 -3 37 -15 50 -27 12 -11 22 -18 22 -15 0 7 24
-12 48 -37 9 -10 20 -18 24 -18 14 0 58 -43 58 -57 0 -7 5 -13 10 -13 6 0 10
-6 10 -14 0 -7 6 -19 14 -25 11 -10 12 -4 5 36 -5 26 -14 50 -20 54 -6 3 -10
9 -9 13 3 16 -45 97 -92 156 -61 76 -195 210 -209 210 -5 0 -20 10 -33 23 -38
36 -166 128 -228 162 -21 12 -119 72 -208 129 -36 23 -77 48 -92 55 -16 8 -28
18 -28 23 0 4 -7 8 -15 8 -8 0 -15 5 -15 10 0 6 -5 10 -10 10 -6 0 -20 9 -32
20 -12 10 -25 17 -30 14 -4 -3 -8 0 -8 6 0 6 -8 14 -17 17 -18 7 -33 19 -92
70 -20 18 -39 33 -43 33 -4 0 -35 23 -70 52 -86 70 -95 78 -159 142 -31 31
-59 53 -62 49 -4 -3 -7 -2 -7 4 0 6 -19 31 -43 55 -64 64 -159 177 -192 228
-17 25 -33 47 -36 50 -31 25 -171 278 -219 395 -47 112 -98 305 -95 356 1 18
-1 39 -4 44 -7 13 -11 33 -14 75 -2 20 -6 41 -11 48 -13 22 -15 200 -1 205 23
10 35 -10 38 -64 1 -30 5 -56 8 -59 4 -3 9 -16 10 -30 2 -14 10 -31 17 -38 6
-7 12 -22 12 -32 0 -10 4 -21 8 -24 5 -3 8 -15 7 -28 -1 -13 2 -29 8 -35 5 -7
6 -13 2 -13 -4 0 0 -11 9 -25 9 -13 18 -32 20 -42 9 -41 19 -63 28 -63 6 0 8
-6 5 -14 -3 -8 -1 -16 5 -18 6 -2 12 -11 13 -19 4 -22 93 -194 116 -223 5 -6
37 -54 72 -106 75 -114 108 -161 123 -175 5 -5 21 -27 35 -47 13 -21 29 -38
36 -38 6 0 14 -8 17 -18 7 -19 289 -299 369 -366 26 -21 97 -76 159 -122 62
-47 118 -88 123 -92 6 -4 39 -28 75 -52 36 -24 67 -46 70 -50 3 -4 12 -9 21
-12 20 -8 249 -143 267 -158 6 -6 12 -9 12 -6 0 6 127 -59 147 -75 7 -6 13 -8
13 -5 0 4 9 2 20 -4 19 -10 25 -4 21 23 0 4 3 7 7 7 5 0 9 6 10 13 4 41 14
137 18 167 8 58 10 391 2 445 -15 100 -18 120 -23 143 -3 12 -7 32 -10 45 -3
12 -7 36 -9 52 -3 17 -9 42 -14 55 -5 14 -18 45 -27 70 -48 124 -93 215 -136
274 -16 22 -29 46 -29 53 0 7 -4 13 -8 13 -5 0 -20 16 -34 35 -31 44 -113 130
-168 175 -24 19 -50 43 -59 53 -8 9 -22 17 -30 17 -8 0 -11 3 -8 7 11 10 -13
33 -35 33 -10 0 -21 7 -24 15 -4 8 -12 15 -20 15 -8 0 -14 5 -14 10 0 6 -4 10
-10 10 -9 0 -100 58 -110 71 -3 4 -15 9 -26 13 -12 4 -34 18 -50 32 -16 13
-52 35 -80 49 -28 13 -57 31 -64 40 -7 8 -18 15 -25 15 -6 0 -38 19 -71 41
-32 23 -65 43 -74 44 -8 2 -16 4 -17 5 -2 2 -6 3 -10 4 -5 1 -28 15 -53 33
-25 17 -61 38 -80 47 -43 19 -120 64 -140 81 -8 7 -25 16 -37 19 -13 4 -23 12
-23 18 0 6 -3 8 -7 5 -3 -4 -17 3 -30 15 -13 12 -23 18 -23 14 0 -4 -7 -1 -15
6 -34 31 -45 38 -57 38 -7 0 -31 17 -52 37 -22 21 -45 38 -53 39 -8 1 -24 9
-36 18 -12 9 -33 24 -47 33 -14 9 -43 33 -66 53 -197 170 -191 164 -214 220
-8 19 -20 40 -27 45 -8 6 -24 33 -37 60 l-24 50 -12 -30z"/>
<path d="M24026 30598 c4 -6 -1 -17 -11 -25 -11 -7 -16 -13 -12 -13 4 0 -11
-25 -33 -55 -22 -30 -40 -56 -40 -59 0 -3 -19 -25 -42 -49 -24 -24 -55 -58
-71 -75 -15 -18 -33 -32 -40 -32 -8 0 -20 -12 -28 -26 -7 -14 -34 -37 -59 -50
-25 -14 -70 -42 -100 -64 -30 -21 -60 -39 -67 -39 -6 -1 -13 -5 -15 -11 -4
-11 -181 -112 -327 -186 -58 -30 -108 -59 -112 -65 -4 -6 -12 -8 -19 -4 -6 4
-21 -2 -33 -13 -12 -11 -33 -23 -47 -27 -14 -4 -68 -28 -120 -55 -52 -26 -111
-53 -132 -59 -20 -7 -47 -22 -61 -35 -14 -13 -28 -21 -31 -18 -3 3 -6 1 -6 -4
0 -5 -12 -11 -26 -12 -15 -1 -50 -15 -78 -31 -111 -62 -146 -80 -146 -75 0 3
-26 -9 -57 -27 -32 -18 -71 -40 -88 -49 -16 -9 -48 -27 -70 -41 -60 -39 -188
-113 -208 -121 -9 -4 -20 -14 -23 -23 -4 -8 -12 -15 -18 -15 -7 0 -23 -10 -36
-22 -14 -13 -25 -21 -26 -18 -1 3 -17 -8 -35 -25 -19 -16 -50 -42 -70 -57 -21
-15 -52 -42 -71 -61 -19 -19 -46 -42 -60 -51 -14 -9 -39 -36 -54 -59 -16 -23
-39 -52 -51 -64 -13 -12 -23 -27 -23 -33 0 -5 -4 -10 -9 -10 -5 0 -14 -12 -20
-28 -6 -15 -24 -41 -39 -57 -28 -30 -47 -63 -44 -77 1 -5 -3 -8 -10 -8 -6 0
-9 -3 -5 -6 3 -3 -8 -28 -24 -55 -16 -28 -29 -52 -29 -54 0 -2 -5 -16 -12 -32
-6 -15 -12 -33 -13 -38 -2 -6 -16 -40 -33 -77 -32 -67 -45 -112 -46 -160 0
-16 -3 -28 -6 -28 -3 0 -7 -12 -8 -27 -1 -15 -5 -29 -10 -32 -4 -3 -8 -13 -9
-21 -1 -8 -4 -24 -6 -35 -11 -48 -30 -205 -31 -252 -1 -29 -5 -53 -10 -53 -5
0 -4 -6 1 -12 5 -7 7 -24 5 -38 -8 -56 -9 -236 -1 -257 5 -15 5 -23 -2 -23 -6
0 -7 -6 -3 -12 5 -7 9 -31 11 -53 9 -127 17 -153 39 -134 8 6 14 8 14 4 0 -4
7 -2 15 5 9 7 43 23 78 35 57 21 108 43 287 127 36 17 67 35 68 40 2 4 12 8
22 8 10 0 21 4 24 9 3 5 32 21 63 36 32 16 61 33 65 39 4 6 8 8 8 4 0 -9 114
62 118 74 2 4 8 8 14 8 16 0 80 33 99 50 9 8 69 48 133 89 64 41 116 78 116
83 0 4 6 8 13 8 6 0 28 14 47 30 19 16 41 35 48 40 6 6 12 8 12 5 0 -3 9 3 19
13 57 52 70 62 80 62 6 0 11 4 11 8 0 5 28 31 63 60 72 59 357 337 357 349 0
4 23 32 50 61 27 28 49 53 47 55 -1 1 8 14 20 27 52 57 125 156 168 228 6 9
12 19 15 22 13 12 60 91 60 99 0 5 18 32 40 60 22 28 35 51 28 51 -10 0 -10 2
0 9 7 4 14 18 15 29 1 12 10 25 20 28 10 3 16 12 13 20 -3 7 -1 16 5 19 5 4 7
10 4 15 -3 5 0 12 6 15 5 4 8 13 5 21 -3 8 -2 14 3 14 9 0 67 131 63 143 -1 4
2 7 7 7 10 0 20 23 28 60 2 13 7 27 11 30 4 3 9 16 10 30 2 14 7 30 11 35 4 6
13 29 20 53 11 39 30 57 32 30 0 -7 2 -24 4 -38 1 -14 0 -29 -3 -35 -4 -5 -7
-37 -8 -70 -2 -52 -9 -100 -14 -100 -1 0 -3 -9 -4 -20 -6 -41 -29 -141 -42
-180 -7 -22 -14 -51 -16 -65 -2 -14 -7 -31 -11 -37 -5 -7 -6 -13 -3 -13 6 0
-31 -101 -68 -183 -15 -32 -24 -63 -21 -68 4 -5 1 -9 -6 -9 -7 0 -9 -3 -6 -7
4 -3 -2 -16 -13 -28 -11 -12 -23 -32 -25 -45 -2 -12 -12 -34 -22 -49 -10 -14
-26 -42 -37 -61 -24 -44 -157 -246 -188 -284 -13 -16 -32 -40 -43 -52 -11 -13
-31 -37 -45 -54 -49 -60 -323 -330 -335 -330 -5 0 -32 -21 -75 -60 -26 -24
-147 -115 -179 -135 -9 -5 -18 -12 -21 -15 -3 -3 -59 -40 -125 -83 -66 -42
-125 -81 -131 -86 -7 -6 -15 -7 -18 -4 -3 4 -6 1 -6 -5 0 -7 -15 -18 -32 -27
-18 -8 -51 -25 -73 -39 -70 -43 -165 -96 -200 -111 -19 -7 -35 -19 -35 -25 0
-6 -4 -9 -9 -6 -5 3 -28 -5 -52 -18 -212 -113 -258 -139 -311 -172 -23 -15
-45 -26 -47 -25 -2 2 -7 -1 -10 -6 -3 -5 -49 -38 -101 -73 -52 -36 -117 -85
-144 -110 -83 -76 -176 -170 -176 -177 0 -5 -11 -18 -24 -31 -14 -12 -34 -42
-46 -67 -11 -24 -28 -49 -36 -55 -7 -7 -14 -21 -14 -31 0 -10 -4 -20 -8 -23
-5 -3 -8 -15 -7 -28 1 -13 -2 -29 -8 -35 -6 -9 -6 -13 3 -13 6 0 14 9 17 20 3
11 9 20 14 20 5 0 9 4 9 10 0 5 16 25 35 45 20 19 40 35 45 35 6 0 10 5 10 10
0 6 5 10 11 10 7 0 35 15 63 33 28 18 62 38 76 44 14 6 48 22 75 35 28 12 55
23 60 23 6 0 16 4 22 8 7 5 23 10 35 12 12 3 25 10 30 17 4 7 8 9 8 4 0 -5 7
-3 15 4 8 7 15 10 15 7 0 -3 25 5 55 19 31 13 62 24 70 24 9 0 23 4 33 10 26
15 75 33 97 35 11 2 65 21 120 44 55 23 113 44 128 47 16 2 38 11 50 18 12 8
33 17 47 21 14 4 45 16 70 27 24 11 49 21 55 23 5 1 23 7 38 13 16 7 33 12 38
12 5 0 9 5 9 10 0 6 7 10 17 10 37 0 531 248 541 272 2 4 9 8 16 8 7 0 21 9
31 20 10 11 23 20 28 20 6 0 43 23 83 50 40 28 77 50 83 50 5 0 16 8 23 18 7
9 32 29 55 44 22 15 61 45 85 67 23 23 48 41 53 41 6 1 37 28 70 60 33 33 65
60 71 60 6 0 17 12 25 27 8 14 28 35 44 45 17 10 26 18 20 18 -5 0 4 13 20 28
17 15 44 45 60 67 16 22 34 45 40 50 22 21 75 93 75 103 0 6 6 15 13 19 6 4
21 25 31 46 11 21 28 48 38 59 10 12 18 27 18 35 0 7 3 13 8 13 4 0 13 19 20
42 7 23 19 47 27 52 7 6 25 40 40 76 33 79 48 116 65 155 8 17 14 32 15 35 0
3 9 32 20 65 22 72 26 86 27 103 1 6 5 12 9 12 4 0 6 9 4 20 -2 11 0 20 4 20
4 0 8 6 9 13 1 14 10 52 12 52 1 0 3 11 6 25 2 14 7 32 10 40 4 8 8 31 11 50
2 19 8 46 13 60 5 14 12 50 16 80 3 30 8 69 10 85 10 57 15 110 17 153 1 23 5
42 10 42 4 0 5 5 2 10 -3 6 -3 15 1 22 4 7 9 42 10 78 3 60 14 312 15 335 1 6
-2 71 -6 145 -4 74 -9 162 -10 195 -2 33 -4 60 -5 60 -1 0 -4 11 -6 25 -2 14
-6 41 -9 60 -4 19 -7 60 -9 90 -3 64 -14 110 -28 110 -5 0 -6 -5 -2 -12z"/>
<path d="M29355 27518 c-40 -123 -116 -206 -248 -268 -83 -40 -231 -84 -322
-96 -27 -3 -61 -8 -75 -10 -14 -1 -59 -6 -100 -9 -41 -3 -100 -8 -130 -10
-124 -10 -585 -5 -939 10 -220 10 -261 12 -486 20 -110 4 -236 9 -280 11 -134
6 -854 6 -960 0 -133 -8 -250 -16 -305 -21 -25 -3 -74 -7 -110 -10 -61 -5 -81
-7 -177 -20 -21 -2 -58 -7 -83 -10 -25 -3 -70 -9 -100 -15 -30 -5 -73 -11 -95
-14 -35 -5 -111 -18 -125 -21 -3 -1 -25 -5 -50 -9 -25 -4 -70 -14 -100 -21
-30 -8 -66 -16 -80 -18 -60 -11 -338 -98 -405 -127 -11 -5 -74 -32 -140 -60
-504 -219 -943 -573 -1237 -1000 -235 -339 -380 -715 -415 -1077 -13 -136 -8
-395 11 -499 4 -23 17 -91 22 -119 14 -74 73 -244 114 -326 115 -234 378 -429
635 -474 17 -2 41 -7 55 -10 58 -13 258 -7 339 10 175 36 358 111 503 206 l66
44 -60 90 c-118 179 -217 412 -258 610 -30 139 -35 189 -35 345 0 160 6 228
30 340 9 41 19 86 21 99 11 56 90 254 136 341 50 95 144 238 193 295 136 157
275 274 442 374 166 99 387 174 608 206 22 3 47 7 55 10 8 2 33 6 55 9 22 3
65 8 95 11 30 4 81 10 113 14 38 5 60 4 65 -3 12 -17 4 -415 -13 -601 -20
-221 -23 -253 -31 -320 -4 -27 -8 -61 -9 -75 -6 -53 -17 -146 -21 -165 -3 -11
-7 -38 -10 -60 -5 -38 -29 -191 -39 -245 -12 -69 -38 -219 -42 -245 -2 -16 -8
-46 -13 -65 -5 -19 -12 -51 -15 -70 -24 -147 -167 -752 -215 -909 -11 -34 -22
-73 -24 -85 -12 -66 -200 -654 -257 -806 l-29 -75 -172 -1 c-169 0 -368 -9
-438 -20 -231 -35 -321 -55 -465 -101 -260 -83 -409 -181 -511 -334 -53 -80
-70 -118 -100 -229 -21 -75 -24 -101 -20 -225 4 -158 23 -240 83 -363 40 -82
118 -174 172 -202 l36 -18 90 86 c115 111 223 198 307 247 9 6 48 29 85 51 84
51 245 131 338 168 39 16 79 32 90 37 48 21 155 57 155 52 0 -14 -164 -329
-235 -453 -461 -801 -932 -1173 -1406 -1107 -55 8 -190 49 -244 76 -22 10 -41
18 -42 17 -2 -2 -12 -38 -23 -80 -29 -113 -39 -211 -40 -366 -1 -129 6 -209
27 -320 8 -47 17 -94 19 -105 6 -35 51 -178 78 -248 84 -221 244 -435 388
-520 100 -58 153 -71 288 -72 173 0 221 9 374 67 322 124 644 430 959 913 152
234 333 576 482 912 37 81 72 162 80 178 22 50 164 409 202 513 29 79 242 711
271 802 4 15 16 26 27 26 11 1 49 5 85 8 36 4 162 6 280 6 118 0 243 5 278 10
74 12 154 46 200 85 18 15 35 25 37 23 3 -3 -4 -31 -15 -64 -35 -99 -88 -302
-119 -449 -35 -165 -50 -270 -66 -450 -7 -83 -7 -333 0 -390 26 -206 40 -266
82 -379 128 -341 586 -620 1103 -672 74 -7 302 -7 346 0 16 3 49 8 73 11 183
26 434 145 616 290 192 154 414 406 561 638 27 43 63 99 80 126 124 192 321
588 471 946 14 33 31 74 39 90 7 17 49 121 92 232 l80 202 -37 23 c-20 12 -40
25 -45 27 -6 2 -57 34 -115 71 -58 36 -113 69 -121 73 -8 4 -25 14 -36 22 -27
20 -7 53 -244 -390 -129 -240 -321 -579 -332 -583 -5 -2 -8 -8 -8 -13 0 -5
-37 -66 -81 -136 -217 -341 -413 -588 -587 -743 -40 -36 -78 -70 -85 -76 -25
-22 -134 -93 -176 -114 -88 -44 -137 -58 -231 -67 -188 -17 -300 136 -335 457
-6 61 -7 285 0 370 8 99 16 184 25 250 5 36 12 88 16 115 3 28 8 59 10 70 2
11 9 48 15 82 l11 62 51 17 c76 25 288 121 392 177 340 184 632 446 819 734
110 170 206 406 232 573 3 19 10 55 14 80 12 63 5 334 -10 395 -6 28 -14 60
-16 73 -3 13 -16 53 -29 89 -133 353 -439 531 -795 462 -30 -6 -74 -19 -97
-30 -24 -10 -47 -19 -51 -19 -5 0 -47 -23 -93 -51 -306 -185 -644 -583 -945
-1112 -91 -160 -234 -450 -300 -609 -27 -65 -51 -118 -54 -118 -3 0 -5 18 -4
40 1 21 -4 77 -12 122 -12 81 -15 96 -29 149 l-6 26 -112 -56 c-162 -82 -220
-94 -461 -97 -109 -1 -205 0 -213 3 -9 4 -11 13 -7 27 90 274 373 1470 474
2001 6 28 19 96 30 151 11 56 22 118 26 139 3 21 8 47 10 59 5 24 6 33 29 166
9 52 18 106 20 120 4 30 23 146 29 175 2 11 7 47 12 80 4 33 8 62 9 65 1 3 5
34 10 70 11 89 11 86 20 165 4 39 9 79 11 89 23 124 21 296 -3 345 -19 37 -19
37 2 34 31 -5 327 -53 358 -58 15 -3 39 -7 55 -10 15 -3 43 -8 62 -11 19 -3
42 -7 50 -9 8 -2 29 -6 45 -9 17 -3 71 -12 120 -21 86 -14 109 -19 173 -30 15
-3 54 -10 87 -15 76 -13 113 -19 145 -25 14 -3 43 -7 65 -11 22 -3 54 -8 70
-11 17 -3 44 -6 62 -8 17 -2 57 -8 90 -14 100 -17 360 -51 508 -65 208 -21
293 -25 505 -25 229 0 262 2 415 25 239 36 430 158 529 337 172 311 89 814
-180 1092 -85 87 -160 132 -255 154 -80 19 -86 17 -104 -41z m-900 -3825 c32
-35 39 -75 32 -171 -19 -255 -203 -597 -442 -823 -58 -55 -172 -142 -214 -164
l-29 -14 19 62 c132 425 302 829 421 998 95 136 159 169 213 112z"/>
<path d="M15482 26889 c-100 -12 -402 -97 -497 -139 -11 -5 -76 -32 -145 -60
-158 -65 -364 -171 -525 -270 -708 -434 -1281 -1062 -1554 -1702 -80 -186
-148 -413 -167 -555 -3 -26 -8 -51 -10 -54 -6 -11 -18 -187 -18 -284 0 -217
27 -388 94 -597 34 -106 36 -109 80 -198 118 -235 367 -422 620 -464 19 -3 46
-8 60 -11 30 -7 226 -7 256 -1 12 2 38 7 58 10 157 25 351 104 519 212 37 24
67 47 67 51 0 5 -12 30 -26 57 -111 208 -210 514 -250 770 -3 21 -7 46 -9 56
-22 115 -22 414 0 590 12 95 41 234 71 334 108 362 308 684 577 931 126 116
110 103 200 169 157 116 365 227 560 300 100 38 330 106 355 106 12 0 14 -31
9 -197 -7 -219 -12 -315 -22 -418 -4 -39 -9 -88 -11 -110 -2 -22 -6 -69 -9
-105 -4 -36 -8 -76 -10 -90 -2 -14 -11 -81 -20 -150 -9 -69 -25 -181 -36 -250
-11 -69 -22 -138 -25 -155 -5 -33 -15 -89 -20 -120 -2 -11 -13 -72 -25 -135
-12 -63 -23 -126 -26 -140 -2 -14 -9 -45 -14 -70 -15 -63 -18 -81 -24 -115 -3
-16 -8 -37 -10 -45 -2 -8 -6 -26 -9 -40 -2 -14 -13 -63 -25 -110 -11 -47 -22
-97 -24 -110 -3 -14 -17 -72 -32 -130 -15 -58 -28 -112 -30 -121 -27 -137
-204 -744 -300 -1034 -92 -275 -233 -656 -291 -782 -8 -17 -14 -34 -14 -37 0
-16 -164 -375 -250 -546 -336 -671 -684 -1118 -1032 -1325 -79 -47 -198 -99
-249 -109 -13 -2 -44 -9 -68 -14 -72 -17 -246 -7 -326 18 -57 18 -125 45 -167
67 -7 3 -41 -138 -53 -217 -22 -146 -7 -454 30 -625 102 -478 368 -828 660
-871 37 -5 173 -6 200 0 11 2 40 7 65 11 25 4 79 18 120 32 520 173 1033 817
1523 1913 14 30 34 76 46 102 11 26 21 49 21 52 0 3 11 29 24 58 124 272 370
962 531 1488 36 118 68 220 70 227 10 31 207 -117 318 -239 63 -69 207 -259
207 -272 0 -3 11 -22 25 -42 66 -97 215 -421 286 -621 67 -188 166 -509 210
-678 10 -38 34 -128 53 -200 19 -71 59 -227 90 -345 138 -538 171 -655 277
-980 101 -311 228 -608 342 -805 51 -88 140 -224 164 -250 10 -11 30 -36 44
-55 28 -37 154 -167 208 -213 36 -31 218 -157 227 -157 3 0 39 -16 79 -35 87
-42 223 -86 314 -101 18 -3 43 -7 54 -10 109 -21 389 -21 507 0 14 3 43 7 65
11 82 11 113 18 228 46 308 77 503 197 663 409 189 250 251 609 173 990 -25
117 -88 320 -100 320 -5 0 -58 -25 -117 -54 -703 -357 -1197 -191 -1613 541
-68 121 -159 307 -224 459 -26 60 -53 123 -60 139 -16 36 -136 339 -175 445
-41 108 -198 507 -214 544 -8 17 -31 72 -52 121 -355 851 -738 1315 -1216
1473 l-87 29 147 73 c369 184 724 426 1082 738 73 63 408 397 485 482 482 533
913 1216 1166 1846 54 134 129 354 135 393 16 118 -6 237 -59 316 -21 30 -105
116 -144 147 -78 61 -288 144 -413 163 -130 20 -180 22 -317 16 -35 -1 -38 -9
-47 -116 -8 -89 -36 -247 -71 -390 -156 -650 -541 -1380 -1048 -1992 -259
-311 -564 -606 -852 -822 -44 -33 -84 -64 -90 -69 -44 -36 -355 -232 -370
-232 -4 0 -4 12 0 28 4 15 8 35 10 44 2 10 13 55 24 100 26 103 81 344 88 378
2 14 13 63 23 110 10 47 21 96 24 110 2 14 16 79 31 145 21 96 97 480 118 595
25 132 68 372 72 400 3 19 10 60 15 90 5 30 12 73 15 95 3 22 10 63 15 90 5
28 12 70 15 95 3 25 8 56 10 70 2 14 7 45 10 70 3 25 8 52 10 60 2 8 6 42 10
75 3 33 8 71 10 85 2 14 6 45 9 70 18 150 27 229 32 260 2 19 6 98 9 175 5
145 -3 200 -42 290 -109 252 -450 438 -898 490 -88 10 -311 12 -383 4z"/>
<path d="M30384 25869 c-5 -9 -99 -31 -130 -31 -13 0 -24 -2 -24 -3 0 -2 34
-79 76 -171 166 -369 332 -819 433 -1174 58 -204 139 -533 156 -633 3 -18 15
-75 25 -127 11 -52 22 -113 25 -135 3 -23 8 -52 10 -65 3 -14 8 -41 11 -60 3
-19 9 -60 14 -90 5 -30 12 -79 15 -109 4 -30 8 -62 10 -72 2 -10 6 -46 10 -81
3 -35 8 -79 10 -98 2 -19 7 -64 10 -100 3 -36 8 -81 10 -100 2 -19 7 -89 10
-155 4 -66 8 -149 11 -185 5 -82 5 -678 0 -745 -2 -27 -7 -106 -11 -175 -4
-69 -8 -141 -10 -160 -2 -19 -6 -66 -9 -105 -4 -38 -9 -86 -11 -105 -3 -19 -7
-57 -10 -85 -10 -83 -40 -305 -51 -365 -2 -14 -11 -65 -19 -115 -9 -49 -18
-101 -20 -115 -3 -14 -19 -90 -35 -170 -17 -80 -33 -156 -36 -170 -3 -14 -25
-104 -50 -200 -215 -830 -534 -1587 -987 -2345 -49 -82 -100 -164 -113 -182
-13 -17 -24 -34 -24 -37 0 -19 -303 -448 -460 -651 -84 -110 -98 -127 -133
-168 -11 -12 -33 -40 -50 -61 -290 -360 -820 -894 -1187 -1195 -36 -30 -67
-57 -70 -60 -7 -9 -230 -186 -310 -246 -36 -27 -69 -53 -75 -57 -187 -149
-634 -443 -940 -620 -281 -163 -677 -365 -935 -477 -80 -35 -149 -67 -155 -72
-5 -5 -16 -9 -25 -9 -8 0 -27 -6 -41 -14 -22 -11 -136 -57 -404 -161 -78 -31
-524 -179 -595 -198 -30 -8 -93 -26 -140 -40 -70 -21 -273 -75 -347 -92 -157
-37 -323 -75 -343 -79 -14 -3 -95 -18 -180 -35 -85 -16 -173 -32 -195 -35 -23
-4 -52 -8 -65 -11 -14 -3 -36 -7 -50 -9 -57 -11 -326 -48 -445 -61 -27 -2 -68
-7 -90 -10 -55 -6 -177 -17 -194 -18 -10 0 -10 -3 3 -12 8 -7 13 -14 11 -17
-3 -3 1 -11 10 -18 8 -7 15 -19 15 -28 0 -9 10 -27 23 -40 12 -14 15 -22 7
-17 -8 5 -5 -3 7 -16 12 -13 21 -27 20 -30 -5 -16 64 -88 81 -85 9 2 49 7 87
10 39 4 81 9 95 11 14 2 45 7 70 9 25 3 79 10 120 16 41 6 93 13 115 16 22 3
63 9 90 14 28 5 70 12 95 15 193 27 752 148 990 215 599 169 973 300 1470 515
355 153 939 456 1195 620 28 17 57 35 65 38 15 7 175 109 195 124 6 4 55 37
110 73 195 128 556 391 711 519 17 14 51 42 75 61 44 36 245 206 265 225 6 5
46 42 89 80 182 161 471 447 629 619 44 49 90 98 101 110 11 12 49 55 85 96
36 41 70 80 75 86 6 6 26 30 45 54 19 24 40 48 45 54 21 21 173 213 251 316
425 558 814 1214 1085 1833 22 50 47 106 54 122 8 17 30 71 50 120 20 50 40
99 45 110 13 27 102 272 151 414 73 214 210 689 232 811 3 14 17 75 31 135 14
61 27 121 29 135 3 14 12 63 22 110 9 47 18 101 21 120 2 19 13 87 24 150 11
63 22 133 25 155 16 124 27 215 31 255 2 25 6 63 9 85 2 22 7 74 11 115 3 41
8 91 9 110 21 212 27 934 12 1175 -13 192 -26 356 -32 395 -2 14 -7 54 -11 90
-10 104 -11 113 -18 155 -3 22 -8 58 -11 80 -2 22 -7 51 -9 65 -3 14 -8 45
-11 70 -8 59 -54 324 -65 375 -5 22 -11 51 -14 65 -36 192 -120 521 -193 759
-19 63 -36 122 -38 130 -14 69 -209 595 -289 781 -21 47 -45 103 -54 125 -9
21 -31 68 -48 104 l-30 65 -63 0 c-35 1 -65 -2 -67 -5z"/>
<path d="M21478 22785 c-2 -2 -66 -6 -143 -10 -77 -4 -147 -8 -156 -10 -10 -2
-62 -6 -116 -10 -54 -3 -109 -8 -123 -10 -26 -5 -102 -13 -181 -19 -25 -3 -61
-7 -80 -10 -18 -3 -53 -8 -77 -11 -152 -17 -219 -26 -232 -30 -8 -2 -37 -7
-65 -10 -27 -3 -99 -15 -160 -26 -60 -12 -121 -23 -135 -25 -51 -10 -147 -36
-224 -61 -141 -46 -207 -139 -211 -297 -3 -101 36 -207 94 -260 20 -19 22 -18
93 12 112 48 264 84 411 98 34 3 73 7 87 10 145 24 843 24 1105 0 28 -3 84 -8
125 -11 111 -9 171 -15 205 -20 17 -2 55 -7 85 -10 30 -3 62 -8 70 -10 8 -2
35 -7 60 -10 137 -18 307 -55 366 -80 20 -8 40 -15 44 -15 4 0 19 28 33 63
134 337 77 586 -163 707 -98 50 -172 59 -457 58 -139 0 -254 -2 -255 -3z"/>
<path d="M12510 18227 c0 -7 7 -22 15 -33 13 -17 14 -16 4 14 -11 33 -19 41
-19 19z"/>
<path d="M13074 17195 c-43 -42 -100 -87 -137 -107 -47 -26 -52 -35 -33 -53 9
-9 21 -26 28 -38 6 -12 41 -62 76 -112 273 -377 533 -693 827 -1004 160 -169
452 -455 550 -540 22 -18 60 -52 85 -75 68 -64 355 -302 451 -375 46 -36 111
-85 144 -111 262 -201 765 -535 1050 -695 131 -74 375 -205 381 -205 3 0 18
-9 32 -19 15 -10 30 -19 34 -20 4 -1 70 -32 145 -69 76 -37 165 -79 198 -94
33 -15 101 -46 150 -69 103 -47 454 -190 595 -242 218 -81 667 -229 734 -243
10 -2 73 -19 140 -38 202 -57 606 -152 720 -170 21 -4 41 -8 45 -10 3 -2 29
-7 56 -10 28 -4 59 -9 70 -12 14 -3 34 8 65 37 25 23 44 46 42 51 -1 4 5 8 14
8 8 0 12 5 9 10 -3 6 -2 10 4 10 5 0 37 26 71 58 l62 59 -79 13 c-43 8 -85 15
-93 16 -8 2 -24 5 -35 7 -20 4 -59 11 -125 22 -19 3 -63 12 -98 20 -34 8 -75
17 -92 20 -49 9 -278 63 -405 96 -66 17 -127 32 -135 34 -137 33 -594 178
-800 255 -47 18 -96 35 -110 40 -14 4 -38 14 -55 20 -16 7 -34 14 -40 16 -28
7 -371 152 -520 219 -157 71 -537 257 -560 275 -5 4 -50 29 -100 55 -101 54
-309 173 -400 230 -33 20 -73 44 -89 53 -42 25 -479 316 -501 335 -11 9 -51
39 -90 66 -38 28 -75 54 -80 58 -6 4 -28 21 -50 37 -22 17 -42 32 -45 35 -3 4
-34 28 -70 56 -58 44 -328 264 -356 290 -6 5 -39 35 -74 65 -34 30 -75 66 -90
80 -15 14 -52 47 -81 74 -143 129 -464 452 -614 620 -44 49 -85 94 -90 100 -6
6 -35 40 -65 76 -30 36 -58 67 -61 70 -34 30 -376 474 -484 630 -96 139 -85
130 -121 95z"/>
<path d="M21178 16938 c-2 -4 -23 -10 -48 -13 -25 -3 -51 -6 -57 -7 -7 -1 -13
-5 -13 -10 0 -4 -3 -7 -7 -7 -5 1 -10 0 -13 -1 -3 -1 -18 -4 -35 -6 -16 -3
-31 -9 -33 -15 -2 -5 -10 -9 -18 -9 -8 0 -14 -5 -14 -11 0 -8 -5 -8 -15 1 -12
10 -16 8 -24 -11 -5 -13 -10 -20 -10 -16 -1 4 -10 3 -21 -3 -11 -6 -18 -15
-15 -20 3 -5 -4 -11 -15 -15 -11 -3 -25 -15 -31 -26 -5 -11 -14 -17 -20 -14
-5 4 -9 1 -9 -5 0 -6 -13 -24 -30 -40 -16 -16 -31 -34 -32 -41 -2 -7 -11 -21
-21 -31 -10 -10 -15 -23 -12 -28 4 -6 1 -10 -5 -10 -6 0 -8 -5 -5 -10 3 -6 0
-13 -9 -16 -8 -3 -12 -12 -9 -20 3 -8 0 -14 -7 -14 -6 0 -8 -4 -5 -10 3 -5 2
-10 -2 -10 -9 0 -10 -6 -16 -75 -2 -22 -8 -48 -12 -58 -4 -9 -4 -32 -1 -50 4
-17 7 -49 7 -69 1 -21 5 -38 10 -38 11 0 12 5 14 69 0 27 7 57 14 65 8 9 11
19 8 22 -8 8 14 65 23 59 4 -3 10 9 14 25 3 17 12 30 20 30 10 0 13 7 11 20
-2 11 0 18 6 15 5 -4 9 2 9 11 0 10 3 15 6 11 3 -3 28 17 54 45 26 28 53 47
59 44 7 -5 9 -1 5 8 -5 14 1 18 22 15 4 0 10 4 14 11 4 6 17 12 28 13 12 1 22
5 22 10 0 5 7 7 15 3 8 -3 15 -2 15 2 0 9 37 14 115 16 33 0 63 6 67 11 5 6 8
5 8 -2 0 -7 7 -10 15 -7 8 4 15 1 15 -5 0 -6 17 -11 39 -11 22 0 43 -5 46 -11
4 -6 13 -8 21 -5 7 3 20 -2 29 -10 8 -8 19 -12 25 -9 6 3 13 -1 16 -9 3 -9 15
-16 25 -16 11 0 19 -7 19 -16 0 -8 4 -13 10 -9 5 3 25 -10 44 -28 19 -19 38
-32 41 -29 3 3 5 -2 5 -12 0 -9 4 -15 8 -12 5 3 15 -4 23 -16 8 -11 19 -26 26
-33 7 -7 9 -15 6 -19 -3 -3 1 -8 10 -12 9 -3 13 -12 10 -20 -3 -8 0 -14 6 -14
6 0 11 -9 11 -20 0 -11 5 -20 10 -20 6 0 10 -7 10 -15 0 -8 3 -15 8 -15 4 0 8
-16 8 -36 1 -20 6 -39 11 -43 5 -3 8 -13 8 -21 -1 -8 2 -24 6 -36 15 -42 17
-84 6 -84 -8 0 -8 -3 -2 -8 15 -11 17 -64 2 -55 -8 4 -8 1 1 -9 10 -12 10 -18
1 -23 -8 -6 -8 -10 2 -15 10 -7 10 -12 0 -23 -6 -8 -13 -32 -15 -52 -2 -21 -8
-40 -13 -44 -5 -3 -9 -19 -8 -36 2 -26 -10 -60 -25 -75 -3 -3 -6 -14 -8 -25
-5 -29 -26 -75 -34 -75 -5 0 -8 -8 -8 -18 0 -10 -9 -28 -21 -41 -12 -12 -22
-30 -24 -39 -1 -9 -8 -16 -15 -14 -6 1 -9 -2 -5 -8 3 -5 -1 -13 -9 -16 -8 -3
-18 -15 -22 -26 -3 -11 -18 -32 -33 -46 -16 -15 -26 -34 -23 -42 3 -8 1 -12
-3 -8 -4 4 -21 -9 -37 -30 -16 -20 -36 -41 -44 -45 -8 -5 -12 -12 -9 -18 4 -5
1 -9 -5 -9 -6 0 -8 -4 -5 -10 3 -5 0 -10 -7 -10 -7 0 -22 -13 -33 -29 -10 -16
-23 -27 -27 -25 -4 3 -9 0 -9 -5 -3 -20 -5 -26 -16 -46 -6 -11 -14 -19 -17
-17 -14 6 -27 1 -21 -8 3 -5 2 -10 -3 -10 -5 0 -15 -12 -23 -27 -8 -16 -26
-41 -42 -56 -15 -16 -25 -32 -22 -37 3 -5 -4 -11 -15 -15 -11 -4 -18 -11 -14
-16 3 -6 -6 -21 -19 -33 -14 -13 -23 -27 -20 -30 4 -3 -1 -6 -11 -6 -10 0 -14
-5 -11 -11 4 -6 -2 -20 -12 -32 -18 -20 -33 -49 -32 -63 0 -3 -9 -14 -20 -23
-12 -10 -21 -26 -21 -35 0 -9 -5 -16 -11 -16 -6 0 -9 -7 -5 -15 3 -8 -1 -21
-9 -29 -9 -8 -12 -22 -8 -32 4 -12 3 -15 -5 -10 -12 7 -14 -1 -15 -51 0 -12
-4 -20 -8 -17 -5 3 -9 -4 -9 -15 0 -11 -4 -22 -9 -25 -5 -4 -9 -23 -8 -44 0
-20 -4 -46 -9 -57 -15 -28 -12 -247 3 -252 6 -2 9 -16 7 -33 -3 -15 0 -31 6
-35 5 -3 10 -15 10 -26 0 -11 7 -19 18 -19 12 0 13 -3 5 -8 -10 -6 -9 -14 1
-34 8 -15 12 -29 9 -32 -3 -3 2 -8 11 -12 9 -3 13 -10 10 -15 -3 -5 1 -12 10
-15 8 -3 13 -11 10 -18 -3 -7 11 -25 31 -41 19 -17 35 -36 35 -42 0 -7 7 -13
16 -13 8 0 12 -4 9 -10 -3 -5 -2 -10 4 -10 11 0 100 -87 95 -93 -2 -1 6 -4 17
-4 12 -1 27 -10 34 -20 7 -10 17 -18 22 -19 4 0 19 -5 33 -11 14 -6 29 -11 34
-11 5 0 12 -6 16 -12 4 -7 24 -14 44 -16 28 -4 36 -1 36 11 0 9 -4 14 -9 10
-5 -3 -21 6 -35 20 -15 14 -31 23 -36 20 -6 -3 -10 -1 -10 5 0 6 -4 8 -10 5
-5 -3 -10 -1 -10 4 0 6 -7 11 -15 11 -8 0 -15 4 -15 10 0 5 -10 19 -22 32 -13
13 -32 36 -43 52 -11 15 -26 34 -33 42 -7 8 -11 14 -7 14 4 0 -1 7 -9 16 -9 8
-14 20 -11 25 4 5 2 9 -3 9 -4 0 -14 16 -22 35 -8 19 -17 35 -21 35 -4 0 -7 6
-6 13 1 30 -4 48 -11 43 -5 -3 -8 13 -7 35 1 22 -3 46 -9 52 -13 13 -15 95 -3
115 5 6 4 12 -2 12 -13 0 -10 20 6 37 6 7 10 23 8 35 -3 12 0 25 7 29 6 4 11
21 10 38 0 17 4 31 9 31 5 0 9 9 9 20 0 11 5 20 10 20 6 0 10 9 10 20 0 11 4
20 9 20 5 0 11 9 14 20 8 31 9 33 29 54 10 11 18 23 18 28 0 4 9 17 20 28 12
12 18 25 15 30 -4 6 1 10 9 10 9 0 16 7 16 15 0 8 5 15 11 15 5 0 8 4 5 9 -8
12 19 33 29 23 5 -4 5 -2 2 4 -7 11 27 54 43 54 5 0 12 9 15 20 4 11 11 18 16
15 8 -6 13 8 10 28 0 4 3 7 9 7 5 0 10 8 11 18 0 9 3 12 6 5 3 -9 9 -10 23 -1
14 9 16 16 8 25 -7 9 -7 13 0 13 6 0 25 14 42 30 17 17 35 30 41 30 6 0 8 4 4
9 -3 5 6 18 20 29 13 11 21 22 18 26 -3 3 4 6 17 6 13 0 21 3 17 6 -3 4 25 38
63 77 38 39 67 74 64 79 -3 4 5 12 18 17 13 6 19 10 15 10 -4 1 5 13 20 29 16
15 29 29 30 32 9 28 17 40 29 40 7 0 11 6 8 14 -3 9 3 20 15 28 12 7 21 19 21
26 0 14 19 50 38 70 6 7 12 20 12 28 0 8 5 12 10 9 6 -4 9 -3 8 2 -2 4 2 22 9
38 13 35 20 57 21 68 1 4 8 14 16 23 8 8 13 21 10 28 -3 8 -1 17 5 21 6 3 11
19 11 35 0 16 4 31 8 34 5 3 8 22 8 43 -1 21 3 41 9 45 14 10 14 296 -1 302
-6 2 -10 18 -8 35 2 16 -1 33 -6 36 -6 3 -10 22 -10 41 0 19 -5 34 -10 34 -6
0 -10 8 -8 18 2 9 -2 16 -9 15 -6 -1 -10 8 -8 23 1 14 -3 28 -11 31 -7 2 -11
10 -8 17 3 7 -2 19 -10 26 -9 7 -13 16 -10 21 3 5 0 9 -6 9 -6 0 -10 8 -8 18
2 9 -2 16 -9 15 -6 -1 -16 10 -21 25 -11 30 -85 112 -102 112 -6 0 -9 4 -6 8
2 4 -9 17 -25 27 -16 11 -29 25 -29 31 0 6 -13 17 -30 24 -16 7 -27 16 -24 21
3 5 -2 6 -11 3 -9 -4 -26 4 -42 20 -14 14 -32 26 -39 26 -14 0 -55 20 -64 31
-5 6 -27 12 -87 25 -16 3 -35 8 -43 11 -8 4 -34 7 -56 8 -23 1 -47 6 -55 11
-17 10 -78 12 -81 2z"/>
<path d="M22354 16225 c1 -17 5 -36 9 -42 5 -8 4 -13 -2 -13 -6 0 -9 -13 -7
-30 2 -16 -2 -38 -9 -47 -9 -12 -10 -22 -4 -30 7 -7 6 -13 0 -17 -6 -4 -8 -13
-4 -21 3 -8 0 -15 -7 -15 -7 0 -10 -6 -7 -14 3 -7 0 -19 -6 -25 -8 -8 -7 -11
3 -11 11 0 10 -3 -2 -17 -8 -10 -14 -25 -13 -33 0 -8 -5 -21 -11 -27 -7 -7
-11 -20 -10 -30 2 -9 -4 -25 -13 -34 -8 -10 -17 -31 -19 -46 -2 -15 -8 -31
-14 -34 -6 -4 -8 -11 -4 -17 3 -5 0 -12 -8 -15 -8 -3 -17 -19 -21 -35 -3 -17
-17 -38 -30 -48 -18 -14 -21 -21 -13 -31 7 -9 7 -13 -1 -13 -6 0 -16 -11 -21
-25 -5 -14 -14 -25 -20 -25 -5 0 -10 -7 -10 -15 0 -8 -5 -15 -11 -15 -5 0 -7
-4 -4 -10 5 -9 -7 -14 -26 -12 -4 1 -5 -6 -2 -16 2 -9 -5 -27 -16 -39 -12 -12
-21 -26 -21 -30 0 -5 -9 -15 -20 -23 -11 -8 -20 -20 -20 -27 0 -7 -5 -13 -12
-13 -6 0 -9 -3 -5 -6 3 -3 -14 -26 -39 -50 -24 -25 -43 -48 -41 -52 5 -10 -41
-51 -49 -43 -4 3 -5 -4 -2 -16 4 -16 1 -24 -12 -28 -10 -3 -21 -13 -24 -21 -3
-9 -11 -12 -17 -8 -7 4 -9 3 -5 -4 3 -6 -2 -17 -11 -24 -10 -7 -19 -20 -21
-28 -6 -24 -23 -40 -36 -33 -6 3 -8 3 -4 -2 4 -4 -5 -21 -21 -36 -16 -15 -27
-30 -24 -33 3 -3 -10 -19 -28 -35 -18 -17 -30 -33 -26 -37 7 -8 -17 -34 -32
-34 -6 0 -10 -6 -8 -12 1 -7 -3 -12 -9 -11 -7 1 -15 -9 -18 -23 -4 -14 -11
-22 -16 -19 -5 3 -7 -3 -5 -14 2 -13 -5 -28 -20 -39 -14 -11 -22 -22 -18 -26
3 -3 -2 -15 -12 -26 -13 -14 -14 -20 -5 -20 9 0 5 -9 -10 -25 -13 -14 -24 -33
-25 -42 -1 -10 -7 -28 -13 -40 -9 -16 -9 -22 0 -25 8 -3 4 -12 -10 -26 -13
-13 -17 -24 -11 -28 6 -4 6 -11 -2 -20 -9 -11 -9 -14 0 -14 9 0 9 -5 0 -21 -9
-17 -8 -20 3 -13 11 6 11 5 -1 -9 -10 -13 -10 -17 -1 -17 9 0 10 -3 1 -13 -6
-8 -8 -17 -4 -21 11 -10 9 -70 -2 -78 -6 -5 -5 -8 3 -8 6 0 12 -7 12 -16 0 -8
7 -22 15 -30 16 -16 19 -12 15 20 -1 10 3 15 8 12 5 -3 12 3 15 14 3 11 2 20
-2 20 -14 0 -8 29 6 34 8 3 11 10 8 16 -3 6 0 13 9 16 8 3 12 12 9 20 -3 7 2
16 10 20 9 3 13 12 11 19 -3 8 4 20 15 27 12 7 21 18 21 25 0 7 5 13 10 13 6
0 9 3 8 8 -5 13 112 123 122 117 6 -4 10 -3 9 2 -4 22 3 33 21 33 11 0 20 5
20 11 0 5 5 7 12 3 6 -4 8 -3 5 3 -7 11 27 43 46 43 8 0 8 3 -2 9 -10 7 -6 11
17 16 18 4 34 15 37 26 6 17 9 18 22 8 12 -11 14 -10 11 7 -2 11 2 18 9 17 7
-2 12 0 11 5 -3 9 58 72 65 66 2 -3 15 7 28 21 13 13 31 25 39 25 13 0 13 1 0
10 -13 8 -12 10 3 10 9 0 17 5 17 10 0 14 37 50 44 43 3 -4 6 -1 6 5 0 6 10
21 23 33 12 12 15 18 7 14 -8 -4 6 13 33 39 26 26 47 54 47 62 0 10 6 14 14
11 10 -4 13 -1 9 9 -3 7 -1 14 4 14 4 0 17 16 27 35 11 19 23 35 28 35 4 0 8
11 8 25 0 14 7 28 15 31 12 5 13 10 4 20 -9 11 -8 14 4 14 15 0 28 21 32 51 1
9 11 33 23 53 12 20 17 36 10 36 -6 0 -3 9 7 20 10 11 14 20 9 20 -5 0 -3 4 5
9 7 5 14 20 14 35 0 14 3 26 8 26 5 0 9 18 9 39 0 22 4 42 9 45 5 4 8 21 7 39
-1 17 2 38 8 45 14 19 15 153 2 158 -7 3 -11 30 -10 69 0 35 -3 62 -8 59 -4
-3 -8 11 -8 30 0 19 -5 38 -11 41 -6 4 -8 13 -5 21 3 7 -1 20 -10 28 -8 8 -14
19 -13 23 4 23 -4 42 -30 73 l-28 34 1 -29z"/>
<path d="M13170 16030 c0 -6 20 -35 44 -64 97 -119 85 -157 -101 -336 -113
-107 -420 -402 -552 -528 -98 -95 -153 -132 -192 -127 -48 7 -95 34 -148 88
-39 39 -53 49 -62 40 -9 -9 -1 -23 34 -60 25 -26 65 -68 88 -93 58 -63 249
-257 358 -365 71 -70 93 -87 103 -77 10 10 2 22 -35 58 -50 50 -87 115 -87
155 0 42 52 107 220 274 l162 160 16 -25 c27 -40 158 -193 184 -216 170 -146
276 -194 418 -190 102 3 161 27 226 93 95 94 118 201 78 358 -33 129 -101 220
-380 502 -110 110 -233 236 -275 281 -71 76 -99 96 -99 72z m416 -503 c119
-109 163 -245 119 -372 -80 -229 -332 -292 -510 -127 -49 45 -145 156 -145
168 0 5 93 102 207 216 l207 207 29 -17 c16 -9 58 -43 93 -75z"/>
<path d="M29542 15698 c-7 -7 -12 -27 -12 -44 0 -36 -1 -37 -136 -133 -185
-133 -264 -303 -214 -457 16 -49 66 -103 115 -125 82 -37 164 -21 380 76 245
109 309 124 373 85 86 -53 62 -184 -55 -290 -116 -106 -254 -140 -389 -94 -27
9 -55 21 -62 27 -9 7 -18 6 -30 -6 -18 -19 -28 -7 136 -177 70 -73 84 -83 99
-74 10 6 18 20 18 31 0 29 16 45 120 118 168 119 261 227 308 358 69 190 -5
344 -170 352 -69 4 -160 -24 -293 -87 -272 -131 -285 -135 -378 -129 -13 0
-39 16 -57 34 -28 28 -32 38 -29 75 7 86 91 192 190 242 78 39 201 34 285 -10
17 -10 24 -9 38 5 15 15 11 21 -49 77 -36 33 -88 82 -117 109 -28 27 -53 49
-55 49 -2 0 -9 -5 -16 -12z"/>
<path d="M28880 14873 c-48 -4 -143 -24 -155 -33 -5 -4 -22 -10 -36 -13 -42
-10 -175 -102 -232 -161 -118 -119 -177 -245 -183 -390 -13 -300 178 -507 469
-507 135 0 268 54 394 160 227 190 302 435 208 671 -74 182 -253 287 -465 273z
m-2 -192 c121 -48 239 -149 316 -270 49 -75 64 -126 60 -194 -10 -140 -163
-276 -321 -283 -173 -8 -386 137 -486 331 -23 44 -29 66 -41 150 -4 29 23 115
47 150 44 64 102 109 172 132 57 19 187 10 253 -16z"/>
<path d="M27569 14617 c-29 -22 -220 -288 -214 -297 10 -16 21 -12 61 25 57
53 95 45 155 -33 50 -64 190 -265 187 -267 -2 -2 -28 -5 -58 -8 -75 -7 -113
-22 -192 -74 -172 -113 -260 -283 -259 -499 0 -93 15 -153 58 -236 61 -117
150 -192 268 -223 59 -16 164 -20 218 -10 181 35 348 178 402 343 10 29 18 52
20 52 1 0 19 -24 40 -54 37 -54 37 -54 63 -38 15 8 56 55 92 105 36 49 70 94
75 101 6 6 28 35 49 64 28 39 36 56 28 64 -9 9 -23 0 -54 -30 -23 -23 -48 -43
-55 -43 -7 -1 -19 -2 -25 -3 -30 -5 -70 29 -135 116 -38 51 -166 226 -283 388
-117 162 -258 357 -313 433 -55 75 -102 137 -106 137 -3 0 -13 -6 -22 -13z
m236 -695 c22 -12 49 -30 61 -40 26 -22 304 -421 304 -436 0 -21 -57 -131 -82
-157 -117 -124 -327 -139 -470 -34 -84 61 -169 189 -198 295 -45 168 30 331
177 386 53 20 157 13 208 -14z"/>
<path d="M13889 14570 c-57 -17 -103 -65 -104 -109 -1 -35 38 -90 75 -105 52
-21 88 -9 125 41 17 23 43 48 59 56 106 54 298 -93 283 -218 -5 -46 -35 -114
-71 -158 l-23 -29 -179 65 c-281 102 -319 112 -444 112 -93 0 -119 -11 -172
-70 -113 -124 -32 -337 164 -432 59 -29 119 -43 243 -58 77 -9 80 -10 81 -20
0 -6 -5 -24 -13 -42 -17 -42 -17 -67 2 -103 32 -62 117 -105 227 -113 88 -7
148 3 164 29 14 20 12 21 -35 23 -73 3 -92 8 -117 32 -39 36 -33 49 165 324
154 214 189 273 193 322 8 98 -55 199 -193 309 -155 124 -318 178 -430 144z
m9 -475 c33 -9 97 -29 143 -46 46 -17 99 -36 117 -41 18 -5 32 -13 30 -17 -2
-5 -48 -70 -103 -144 -69 -94 -106 -136 -120 -136 -33 -1 -167 35 -216 57
-108 49 -163 167 -119 256 39 81 132 106 268 71z"/>
<path d="M14660 14015 c0 -8 22 -26 49 -40 44 -22 62 -44 66 -80 2 -20 -39
-93 -135 -235 -251 -375 -260 -387 -328 -377 -21 2 -58 17 -81 31 -35 23 -42
24 -47 11 -4 -9 -5 -17 -3 -19 15 -12 378 -254 389 -259 8 -4 38 -22 67 -41
40 -27 54 -32 62 -22 8 9 -1 20 -34 44 -54 38 -85 85 -79 119 7 38 33 83 144
253 56 85 114 175 128 199 53 89 58 91 169 87 123 -4 198 -31 259 -91 84 -85
71 -131 -142 -488 -46 -77 -84 -143 -84 -147 0 -4 -16 -23 -35 -43 -44 -46
-83 -48 -160 -11 -51 24 -83 25 -70 3 8 -12 267 -166 425 -252 30 -17 64 -36
75 -44 25 -17 32 -16 38 1 4 9 -11 24 -40 42 -47 31 -73 68 -73 107 0 27 34
98 106 222 80 138 109 192 161 293 44 87 47 99 47 170 0 59 -5 86 -22 118 -77
148 -251 211 -500 181 l-62 -8 40 63 c23 35 45 67 51 72 16 17 10 35 -18 49
-25 13 -339 107 -356 107 -4 0 -7 -7 -7 -15z"/>
<path d="M26488 13928 c-103 -59 -76 -198 37 -198 63 0 135 66 135 123 0 34
-29 75 -61 86 -46 16 -69 13 -111 -11z"/>
<path d="M16195 13760 c-49 -19 -67 -87 -36 -137 29 -47 67 -68 120 -66 37 0
50 6 73 32 33 37 36 73 8 118 -32 54 -106 78 -165 53z"/>
<path d="M26774 13513 c-47 -46 -229 -243 -232 -253 -8 -22 21 -18 59 10 44
31 83 38 109 17 17 -13 58 -69 76 -102 6 -11 40 -74 76 -140 120 -220 131
-240 159 -297 50 -98 36 -153 -53 -207 -24 -14 -35 -27 -31 -37 6 -17 111 36
386 195 54 31 109 62 122 69 14 7 25 17 25 22 0 18 -21 21 -43 7 -12 -7 -35
-17 -52 -22 -97 -26 -96 -28 -337 395 -114 201 -214 366 -221 368 -8 2 -27
-10 -43 -25z"/>
<path d="M26039 13433 c-5 -172 -39 -273 -131 -385 -32 -40 -49 -78 -34 -78 3
0 39 16 82 36 73 34 104 38 104 14 0 -7 21 -55 46 -108 26 -53 70 -149 99
-212 147 -321 171 -362 238 -396 50 -26 148 -19 218 17 55 28 128 104 154 162
13 29 27 78 31 110 l7 59 -31 -16 c-18 -9 -32 -26 -37 -43 -15 -64 -109 -138
-160 -128 -11 2 -26 4 -33 4 -7 1 -25 13 -39 29 -21 22 -160 296 -290 572
l-30 64 114 57 c63 31 117 59 120 62 4 4 -11 42 -22 55 -2 2 -57 -24 -122 -57
l-120 -60 -68 140 c-70 144 -94 170 -96 102z"/>
<path d="M21078 13405 c-2 -2 -30 -5 -63 -9 -69 -6 -98 -11 -178 -32 -74 -19
-198 -63 -214 -76 -7 -6 -13 -8 -13 -4 0 10 -191 -93 -275 -149 -149 -98 -285
-212 -404 -339 -25 -27 -55 -58 -66 -70 -119 -126 -284 -371 -383 -571 -174
-347 -247 -635 -246 -970 0 -156 4 -206 28 -315 24 -111 89 -280 108 -280 19
0 133 64 222 124 265 180 546 452 681 660 45 69 68 114 125 241 12 27 68 204
92 290 10 39 21 77 23 85 2 8 22 74 45 145 22 72 42 135 44 140 2 6 7 19 11
30 5 11 16 41 26 67 72 188 205 396 333 521 91 90 176 144 353 228 208 99 293
142 293 149 0 8 -118 67 -175 87 -54 19 -71 23 -170 38 -43 6 -193 13 -197 10z"/>
<path d="M15776 13332 c-9 -14 8 -28 50 -40 57 -17 78 -42 71 -88 -9 -57 -256
-545 -306 -604 -37 -45 -83 -52 -147 -24 -37 16 -55 19 -63 11 -7 -7 -1 -16
22 -30 75 -46 501 -256 508 -251 5 3 9 1 9 -4 0 -8 40 -28 240 -119 41 -19 84
-38 95 -43 101 -47 209 -89 216 -84 18 11 8 24 -38 49 -82 42 -88 50 -88 108
1 43 16 86 89 251 155 352 138 321 193 336 117 31 258 16 325 -33 77 -57 81
-127 15 -303 -99 -265 -160 -410 -179 -431 -30 -32 -81 -39 -143 -19 -63 19
-65 20 -65 2 0 -8 34 -27 83 -46 45 -18 96 -39 112 -46 35 -14 319 -118 353
-129 42 -12 25 24 -20 44 -46 20 -87 54 -89 74 -1 7 -2 19 -3 27 -3 27 31 132
109 345 43 116 82 228 87 250 27 110 -4 219 -79 285 -107 94 -273 111 -464 47
-77 -26 -75 -35 -20 86 17 38 31 71 31 73 0 15 -65 27 -205 39 -66 6 -125 13
-167 21 -23 5 -28 2 -28 -14 0 -15 11 -22 43 -30 47 -12 87 -44 87 -70 0 -27
-25 -101 -58 -172 -197 -430 -213 -461 -248 -489 -15 -12 -39 -21 -54 -21 -33
0 -120 28 -141 46 -8 8 -20 14 -26 14 -17 0 -83 68 -84 87 -1 10 0 29 1 43 1
14 84 193 186 398 101 204 184 376 184 381 0 5 -12 14 -27 20 -27 10 -47 14
-128 26 -22 3 -65 10 -95 15 -110 18 -138 21 -144 12z"/>
<path d="M17828 13087 c-56 -22 -71 -103 -28 -155 19 -23 75 -50 98 -46 6 1
21 2 33 3 34 2 79 55 79 92 0 38 -35 95 -65 105 -35 12 -89 12 -117 1z"/>
<path d="M21835 12979 c-38 -28 -375 -202 -375 -193 0 7 -145 -69 -148 -78 -2
-4 -10 -8 -18 -8 -15 0 -39 -18 -117 -90 -86 -78 -190 -247 -253 -411 -30 -79
-77 -218 -76 -226 0 -1 -7 -24 -15 -50 -8 -27 -25 -86 -38 -133 -95 -345 -200
-566 -373 -785 -54 -67 -284 -303 -367 -375 -110 -96 -315 -247 -411 -304
l-49 -28 45 -39 c25 -22 51 -39 58 -39 6 0 12 -4 12 -9 0 -12 149 -78 217 -96
89 -23 129 -28 248 -29 231 -2 394 41 647 170 73 37 212 123 253 155 5 5 37
30 70 56 91 72 182 157 306 290 168 177 377 515 477 768 46 118 96 274 91 287
0 2 5 17 11 33 16 42 29 108 47 240 9 70 9 372 0 420 -5 22 -10 58 -14 80 -8
59 -69 238 -101 298 -43 79 -73 127 -80 127 -4 0 -25 -14 -47 -31z"/>
<path d="M25505 12895 c-132 -28 -279 -99 -359 -173 -45 -43 -96 -143 -96
-189 0 -36 14 -79 33 -97 54 -54 177 -10 177 64 0 16 -8 51 -18 77 -10 26 -17
54 -16 61 1 6 2 19 3 27 2 25 59 82 104 103 96 45 179 38 238 -21 38 -39 96
-156 82 -166 -14 -8 -80 -62 -192 -156 -267 -223 -334 -345 -266 -482 40 -80
117 -125 216 -125 135 -1 236 58 345 199 97 127 88 120 113 78 21 -36 70 -65
111 -65 35 0 107 40 150 83 23 23 57 74 77 113 30 61 33 75 23 94 -11 21 -13
20 -46 -29 -35 -52 -76 -80 -107 -73 -26 5 -55 63 -171 330 -57 134 -117 259
-132 279 -51 67 -151 92 -269 68z m195 -402 c6 -16 15 -37 20 -48 5 -11 30
-71 55 -134 52 -128 55 -109 -39 -209 -79 -83 -149 -117 -225 -109 -57 6 -91
25 -124 69 -46 61 -36 135 31 223 35 46 247 235 265 235 4 0 12 -12 17 -27z"/>
<path d="M24130 12884 c-89 -16 -108 -20 -160 -34 -25 -7 -52 -13 -61 -15 -8
-2 -71 -17 -140 -33 -68 -17 -207 -47 -309 -68 -102 -20 -188 -40 -192 -43 -4
-4 -4 -12 0 -18 6 -9 19 -9 52 -2 55 13 114 5 149 -20 40 -29 52 -69 121 -402
11 -52 22 -104 24 -115 2 -10 18 -86 36 -169 18 -82 33 -157 35 -165 70 -342
70 -335 16 -389 -31 -31 -52 -42 -106 -54 -74 -17 -80 -20 -70 -37 6 -10 18
-10 85 4 14 3 36 7 50 10 115 20 421 90 628 142 388 99 553 185 648 336 105
166 60 353 -105 437 -57 30 -124 42 -224 42 l-88 0 54 44 c194 158 175 410
-40 519 -88 44 -256 57 -403 30z m151 -121 c60 -28 115 -76 142 -127 17 -32
22 -58 22 -122 0 -73 -3 -85 -29 -122 -30 -44 -71 -79 -121 -104 -78 -40 -261
-91 -375 -105 -25 -3 -49 -6 -54 -7 -5 0 -17 31 -26 69 -25 98 -70 291 -76
318 -2 12 -10 47 -17 78 l-14 55 56 23 c31 13 97 34 146 46 118 31 276 30 346
-2z m220 -606 c120 -36 203 -138 203 -252 -1 -184 -211 -329 -549 -378 -115
-17 -147 -16 -151 3 -1 8 -7 38 -14 65 -6 28 -14 61 -16 75 -3 14 -16 68 -29
120 -42 169 -65 284 -57 291 10 10 189 58 292 78 104 21 245 20 321 -2z"/>
<path d="M17473 12581 c1 -15 12 -20 49 -25 86 -12 102 -47 72 -154 -30 -109
-165 -517 -182 -551 -29 -56 -59 -74 -117 -67 -27 3 -60 8 -71 11 -14 5 -23 1
-27 -9 -5 -13 34 -29 211 -85 330 -106 346 -110 354 -97 12 17 9 26 -7 26 -8
0 -35 9 -59 21 -52 24 -77 67 -70 119 5 32 74 263 199 664 25 81 43 151 40
155 -4 3 -94 7 -200 8 -184 3 -194 2 -192 -16z"/>
<path d="M18265 12421 c-100 -25 -184 -105 -201 -192 -24 -132 20 -197 256
-372 143 -107 161 -122 194 -171 48 -71 27 -153 -47 -187 -96 -43 -252 -4
-346 89 -73 72 -99 137 -110 275 -1 4 -10 7 -21 7 -14 0 -22 -11 -30 -42 -13
-50 -69 -247 -75 -265 -7 -21 31 -35 54 -21 21 13 22 13 180 -58 123 -54 208
-73 305 -69 45 1 88 5 96 7 8 3 33 10 55 16 102 29 182 136 173 231 -10 101
-76 181 -248 301 -58 40 -133 95 -166 122 -115 90 -131 191 -39 248 45 28 122
28 200 1 122 -43 180 -118 200 -258 10 -75 46 -80 58 -8 3 17 13 64 22 105 9
41 19 86 21 100 3 14 7 32 10 41 7 23 -25 33 -46 14 -25 -23 -52 -19 -132 21
-134 66 -263 89 -363 65z"/>
<path d="M22187 12213 c-3 -5 -8 -44 -11 -88 -4 -44 -9 -91 -11 -105 -2 -14
-6 -38 -9 -55 -10 -63 -26 -137 -31 -145 -2 -4 7 -25 22 -46 71 -106 144 -290
223 -564 28 -98 61 -193 72 -205 4 -5 8 -15 8 -22 0 -54 199 -298 346 -423
116 -100 192 -154 280 -200 l59 -30 17 34 c89 174 100 445 29 722 -19 73 -78
240 -101 282 -51 97 -115 208 -122 210 -4 2 -8 8 -8 14 0 10 -102 148 -149
201 -146 165 -306 291 -472 370 -107 51 -135 61 -142 50z"/>
<path d="M22010 11462 c-48 -118 -115 -251 -188 -372 -41 -69 -78 -127 -81
-130 -4 -3 -15 -18 -25 -35 -19 -30 -149 -198 -173 -223 -17 -18 -18 -15 27
-82 106 -156 219 -272 405 -416 105 -81 284 -165 413 -195 26 -6 56 -13 67
-16 47 -11 223 -4 285 12 68 17 179 72 218 108 l22 21 -47 29 c-272 168 -546
448 -657 672 -49 98 -128 327 -151 434 -7 32 -54 167 -72 208 l-20 42 -23 -57z"/>
</g>
</svg>
